<mxfile host="app.diagrams.net" agent="Mozilla/5.0 (Windows NT 10.0; Win64; x64) AppleWebKit/537.36 (KHTML, like Gecko) Chrome/128.0.0.0 Safari/537.36" version="24.7.8" pages="2">
  <diagram name="clone" id="RqkVFX79NEIq-Tt_-g6f">
    <mxGraphModel dx="808" dy="1506" grid="1" gridSize="10" guides="1" tooltips="1" connect="1" arrows="1" fold="1" page="1" pageScale="1" pageWidth="850" pageHeight="1100" math="0" shadow="0">
      <root>
        <mxCell id="0" />
        <mxCell id="1" parent="0" />
        <mxCell id="deMFas4zkExKl-yY8JxT-28" value="" style="ellipse;shape=cloud;whiteSpace=wrap;html=1;strokeWidth=3;" parent="1" vertex="1">
          <mxGeometry x="189" y="-845" width="481" height="290" as="geometry" />
        </mxCell>
        <mxCell id="deMFas4zkExKl-yY8JxT-16" value="" style="sketch=0;pointerEvents=1;shadow=0;dashed=0;html=1;strokeColor=none;fillColor=#434445;aspect=fixed;labelPosition=center;verticalLabelPosition=bottom;verticalAlign=top;align=center;outlineConnect=0;shape=mxgraph.vvd.laptop;" parent="1" vertex="1">
          <mxGeometry x="153.5" y="-420" width="291.67" height="210" as="geometry" />
        </mxCell>
        <mxCell id="deMFas4zkExKl-yY8JxT-5" value="" style="endArrow=none;html=1;rounded=0;exitX=1;exitY=0.5;exitDx=0;exitDy=0;exitPerimeter=0;" parent="1" source="deMFas4zkExKl-yY8JxT-21" target="deMFas4zkExKl-yY8JxT-3" edge="1">
          <mxGeometry width="50" height="50" relative="1" as="geometry">
            <mxPoint x="409" y="-695" as="sourcePoint" />
            <mxPoint x="789" y="-690" as="targetPoint" />
          </mxGeometry>
        </mxCell>
        <mxCell id="deMFas4zkExKl-yY8JxT-3" value="" style="whiteSpace=wrap;html=1;aspect=fixed;fillColor=#008a00;fontColor=#ffffff;strokeColor=#005700;" parent="1" vertex="1">
          <mxGeometry x="518" y="-718.5" width="45" height="45" as="geometry" />
        </mxCell>
        <mxCell id="deMFas4zkExKl-yY8JxT-9" value="" style="whiteSpace=wrap;html=1;aspect=fixed;fillColor=#008a00;fontColor=#ffffff;strokeColor=#005700;" parent="1" vertex="1">
          <mxGeometry x="283" y="-392.5" width="45" height="45" as="geometry" />
        </mxCell>
        <mxCell id="deMFas4zkExKl-yY8JxT-10" value="" style="endArrow=classic;html=1;rounded=0;entryX=0.5;entryY=0;entryDx=0;entryDy=0;dashed=1;exitX=0.5;exitY=1;exitDx=0;exitDy=0;" parent="1" source="deMFas4zkExKl-yY8JxT-3" target="deMFas4zkExKl-yY8JxT-9" edge="1">
          <mxGeometry width="50" height="50" relative="1" as="geometry">
            <mxPoint x="540" y="-670" as="sourcePoint" />
            <mxPoint x="351" y="-495" as="targetPoint" />
          </mxGeometry>
        </mxCell>
        <mxCell id="deMFas4zkExKl-yY8JxT-14" value="" style="dashed=0;outlineConnect=0;html=1;align=center;labelPosition=center;verticalLabelPosition=bottom;verticalAlign=top;shape=mxgraph.weblogos.github" parent="1" vertex="1">
          <mxGeometry x="399" y="-860" width="75" height="75" as="geometry" />
        </mxCell>
        <mxCell id="deMFas4zkExKl-yY8JxT-21" value="&lt;span style=&quot;font-size: 18px;&quot;&gt;Remote Repository&lt;/span&gt;" style="shape=cylinder3;whiteSpace=wrap;html=1;boundedLbl=1;backgroundOutline=1;size=15;" parent="1" vertex="1">
          <mxGeometry x="304" y="-750" width="100" height="110" as="geometry" />
        </mxCell>
        <mxCell id="deMFas4zkExKl-yY8JxT-22" value="&lt;span style=&quot;font-size: 18px;&quot;&gt;Local&lt;/span&gt;&lt;div&gt;&lt;span style=&quot;font-size: 18px;&quot;&gt;Repository&lt;/span&gt;&lt;/div&gt;" style="shape=cylinder3;whiteSpace=wrap;html=1;boundedLbl=1;backgroundOutline=1;size=15;strokeWidth=2;" parent="1" vertex="1">
          <mxGeometry x="126.5" y="-435" width="115" height="130" as="geometry" />
        </mxCell>
        <mxCell id="deMFas4zkExKl-yY8JxT-24" value="&lt;font style=&quot;font-size: 22px;&quot;&gt;git clone&lt;/font&gt;" style="text;html=1;align=center;verticalAlign=middle;whiteSpace=wrap;rounded=0;fontStyle=1;fontFamily=Courier New;" parent="1" vertex="1">
          <mxGeometry x="259" y="-530" width="140" height="50" as="geometry" />
        </mxCell>
        <mxCell id="deMFas4zkExKl-yY8JxT-29" value="" style="sketch=0;pointerEvents=1;shadow=0;dashed=0;html=1;strokeColor=none;fillColor=#434445;aspect=fixed;labelPosition=center;verticalLabelPosition=bottom;verticalAlign=top;align=center;outlineConnect=0;shape=mxgraph.vvd.laptop;" parent="1" vertex="1">
          <mxGeometry x="517" y="-420" width="284.72" height="205" as="geometry" />
        </mxCell>
        <mxCell id="deMFas4zkExKl-yY8JxT-31" value="" style="endArrow=none;html=1;rounded=0;exitX=1;exitY=0.5;exitDx=0;exitDy=0;exitPerimeter=0;" parent="1" source="deMFas4zkExKl-yY8JxT-33" target="deMFas4zkExKl-yY8JxT-32" edge="1">
          <mxGeometry width="50" height="50" relative="1" as="geometry">
            <mxPoint x="597" y="-375" as="sourcePoint" />
            <mxPoint x="977" y="-370" as="targetPoint" />
          </mxGeometry>
        </mxCell>
        <mxCell id="deMFas4zkExKl-yY8JxT-32" value="" style="whiteSpace=wrap;html=1;aspect=fixed;fillColor=#008a00;fontColor=#ffffff;strokeColor=#005700;" parent="1" vertex="1">
          <mxGeometry x="660" y="-392.5" width="45" height="45" as="geometry" />
        </mxCell>
        <mxCell id="deMFas4zkExKl-yY8JxT-33" value="&lt;span style=&quot;font-size: 18px;&quot;&gt;Local&lt;/span&gt;&lt;div&gt;&lt;span style=&quot;font-size: 18px;&quot;&gt;Repository&lt;/span&gt;&lt;/div&gt;" style="shape=cylinder3;whiteSpace=wrap;html=1;boundedLbl=1;backgroundOutline=1;size=15;strokeWidth=2;" parent="1" vertex="1">
          <mxGeometry x="490" y="-435" width="115" height="130" as="geometry" />
        </mxCell>
        <mxCell id="deMFas4zkExKl-yY8JxT-35" value="" style="endArrow=classic;html=1;rounded=0;exitX=0.5;exitY=1;exitDx=0;exitDy=0;entryX=0.5;entryY=0;entryDx=0;entryDy=0;dashed=1;" parent="1" source="deMFas4zkExKl-yY8JxT-3" target="deMFas4zkExKl-yY8JxT-32" edge="1">
          <mxGeometry width="50" height="50" relative="1" as="geometry">
            <mxPoint x="256.5" y="-934.5" as="sourcePoint" />
            <mxPoint x="729.5" y="-704.5" as="targetPoint" />
          </mxGeometry>
        </mxCell>
        <mxCell id="deMFas4zkExKl-yY8JxT-36" value="&lt;font style=&quot;font-size: 22px;&quot;&gt;git clone&lt;/font&gt;" style="text;html=1;align=center;verticalAlign=middle;whiteSpace=wrap;rounded=0;fontStyle=1;fontFamily=Courier New;" parent="1" vertex="1">
          <mxGeometry x="630" y="-530" width="140" height="50" as="geometry" />
        </mxCell>
        <mxCell id="deMFas4zkExKl-yY8JxT-40" value="" style="endArrow=none;html=1;rounded=0;exitX=1;exitY=0.5;exitDx=0;exitDy=0;exitPerimeter=0;entryX=0;entryY=0.5;entryDx=0;entryDy=0;" parent="1" target="deMFas4zkExKl-yY8JxT-9" edge="1">
          <mxGeometry width="50" height="50" relative="1" as="geometry">
            <mxPoint x="241.5" y="-370.71" as="sourcePoint" />
            <mxPoint x="343" y="-371" as="targetPoint" />
          </mxGeometry>
        </mxCell>
        <mxCell id="deMFas4zkExKl-yY8JxT-42" value="&lt;font style=&quot;font-size: 18px;&quot;&gt;master&lt;/font&gt;" style="text;html=1;align=center;verticalAlign=middle;whiteSpace=wrap;rounded=0;" parent="1" vertex="1">
          <mxGeometry x="510.5" y="-750" width="60" height="30" as="geometry" />
        </mxCell>
        <mxCell id="deMFas4zkExKl-yY8JxT-43" value="&lt;font style=&quot;font-size: 18px;&quot;&gt;master&lt;/font&gt;" style="text;html=1;align=center;verticalAlign=middle;whiteSpace=wrap;rounded=0;" parent="1" vertex="1">
          <mxGeometry x="275.5" y="-340" width="60" height="30" as="geometry" />
        </mxCell>
        <mxCell id="deMFas4zkExKl-yY8JxT-44" value="&lt;font style=&quot;font-size: 18px;&quot;&gt;master&lt;/font&gt;" style="text;html=1;align=center;verticalAlign=middle;whiteSpace=wrap;rounded=0;" parent="1" vertex="1">
          <mxGeometry x="652.5" y="-340" width="60" height="30" as="geometry" />
        </mxCell>
      </root>
    </mxGraphModel>
  </diagram>
  <diagram id="1np5z23PdQe4-IuDIcbn" name="commit">
    <mxGraphModel dx="808" dy="1506" grid="1" gridSize="10" guides="1" tooltips="1" connect="1" arrows="1" fold="1" page="1" pageScale="1" pageWidth="850" pageHeight="1100" math="0" shadow="0">
      <root>
        <mxCell id="0" />
        <mxCell id="1" parent="0" />
        <mxCell id="bceMVoac3UXHNjWPCIxk-6" value="" style="html=1;verticalLabelPosition=bottom;align=center;labelBackgroundColor=#ffffff;verticalAlign=top;strokeWidth=2;strokeColor=#0080F0;shadow=0;dashed=0;shape=mxgraph.ios7.icons.folder;" vertex="1" parent="1">
          <mxGeometry x="350" y="-270" width="230" height="170" as="geometry" />
        </mxCell>
        <mxCell id="bceMVoac3UXHNjWPCIxk-1" value="" style="sketch=0;pointerEvents=1;shadow=0;dashed=0;html=1;strokeColor=none;fillColor=#434445;aspect=fixed;labelPosition=center;verticalLabelPosition=bottom;verticalAlign=top;align=center;outlineConnect=0;shape=mxgraph.vvd.laptop;" vertex="1" parent="1">
          <mxGeometry x="20" y="-464.96" width="701.35" height="504.96" as="geometry" />
        </mxCell>
        <mxCell id="bceMVoac3UXHNjWPCIxk-2" value="" style="whiteSpace=wrap;html=1;aspect=fixed;fillColor=#008a00;fontColor=#ffffff;strokeColor=#005700;" vertex="1" parent="1">
          <mxGeometry x="283" y="-392.5" width="45" height="45" as="geometry" />
        </mxCell>
        <mxCell id="bceMVoac3UXHNjWPCIxk-3" value="&lt;font style=&quot;font-size: 22px;&quot;&gt;Local&lt;/font&gt;&lt;div style=&quot;font-size: 22px;&quot;&gt;&lt;font style=&quot;font-size: 22px;&quot;&gt;Repository&lt;/font&gt;&lt;/div&gt;" style="shape=cylinder3;whiteSpace=wrap;html=1;boundedLbl=1;backgroundOutline=1;size=15;strokeWidth=2;" vertex="1" parent="1">
          <mxGeometry x="126.5" y="-435" width="115" height="130" as="geometry" />
        </mxCell>
        <mxCell id="bceMVoac3UXHNjWPCIxk-4" value="" style="endArrow=none;html=1;rounded=0;exitX=1;exitY=0.5;exitDx=0;exitDy=0;exitPerimeter=0;entryX=0;entryY=0.5;entryDx=0;entryDy=0;" edge="1" parent="1" target="bceMVoac3UXHNjWPCIxk-2">
          <mxGeometry width="50" height="50" relative="1" as="geometry">
            <mxPoint x="241.5" y="-370.71" as="sourcePoint" />
            <mxPoint x="343" y="-371" as="targetPoint" />
          </mxGeometry>
        </mxCell>
        <mxCell id="bceMVoac3UXHNjWPCIxk-5" value="&lt;font style=&quot;font-size: 18px;&quot;&gt;master&lt;/font&gt;" style="text;html=1;align=center;verticalAlign=middle;whiteSpace=wrap;rounded=0;" vertex="1" parent="1">
          <mxGeometry x="395" y="-422.5" width="60" height="30" as="geometry" />
        </mxCell>
        <mxCell id="bceMVoac3UXHNjWPCIxk-8" value="" style="sketch=0;pointerEvents=1;shadow=0;dashed=0;html=1;strokeColor=none;fillColor=#505050;labelPosition=center;verticalLabelPosition=bottom;verticalAlign=top;outlineConnect=0;align=center;shape=mxgraph.office.devices.hard_disk;" vertex="1" parent="1">
          <mxGeometry x="560" y="-203" width="40" height="54" as="geometry" />
        </mxCell>
        <mxCell id="bceMVoac3UXHNjWPCIxk-9" value="VS Code" style="swimlane;whiteSpace=wrap;html=1;gradientColor=none;" vertex="1" parent="1">
          <mxGeometry x="400" y="-236" width="130" height="120" as="geometry" />
        </mxCell>
        <mxCell id="bceMVoac3UXHNjWPCIxk-10" value="Modify" style="whiteSpace=wrap;html=1;aspect=fixed;fillColor=#008a00;fontColor=#ffffff;strokeColor=#005700;gradientColor=#CC6600;" vertex="1" parent="bceMVoac3UXHNjWPCIxk-9">
          <mxGeometry x="42.5" y="46" width="45" height="45" as="geometry" />
        </mxCell>
        <mxCell id="bceMVoac3UXHNjWPCIxk-14" value="" style="whiteSpace=wrap;html=1;aspect=fixed;fillColor=#fa6800;fontColor=#000000;strokeColor=#C73500;" vertex="1" parent="1">
          <mxGeometry x="403" y="-392.5" width="45" height="45" as="geometry" />
        </mxCell>
        <mxCell id="bceMVoac3UXHNjWPCIxk-15" value="" style="endArrow=none;html=1;rounded=0;exitX=1;exitY=0.5;exitDx=0;exitDy=0;entryX=0;entryY=0.5;entryDx=0;entryDy=0;" edge="1" parent="1" source="bceMVoac3UXHNjWPCIxk-2" target="bceMVoac3UXHNjWPCIxk-14">
          <mxGeometry width="50" height="50" relative="1" as="geometry">
            <mxPoint x="550" y="-330" as="sourcePoint" />
            <mxPoint x="600" y="-380" as="targetPoint" />
          </mxGeometry>
        </mxCell>
        <mxCell id="bceMVoac3UXHNjWPCIxk-16" value="" style="curved=1;endArrow=classic;html=1;rounded=0;entryX=0.5;entryY=1;entryDx=0;entryDy=0;" edge="1" parent="1" source="bceMVoac3UXHNjWPCIxk-8" target="bceMVoac3UXHNjWPCIxk-14">
          <mxGeometry width="50" height="50" relative="1" as="geometry">
            <mxPoint x="490" y="-270" as="sourcePoint" />
            <mxPoint x="540" y="-320" as="targetPoint" />
            <Array as="points">
              <mxPoint x="550" y="-250" />
              <mxPoint x="530" y="-280" />
              <mxPoint x="490" y="-320" />
            </Array>
          </mxGeometry>
        </mxCell>
        <mxCell id="bceMVoac3UXHNjWPCIxk-19" value="" style="curved=1;endArrow=classic;html=1;rounded=0;entryX=0;entryY=0.5;entryDx=0;entryDy=0;exitX=0.5;exitY=1;exitDx=0;exitDy=0;" edge="1" parent="1" source="bceMVoac3UXHNjWPCIxk-2" target="bceMVoac3UXHNjWPCIxk-10">
          <mxGeometry width="50" height="50" relative="1" as="geometry">
            <mxPoint x="250" y="-210" as="sourcePoint" />
            <mxPoint x="300" y="-260" as="targetPoint" />
            <Array as="points">
              <mxPoint x="290" y="-320" />
              <mxPoint x="280" y="-290" />
              <mxPoint x="280" y="-270" />
              <mxPoint x="290" y="-230" />
              <mxPoint x="340" y="-180" />
            </Array>
          </mxGeometry>
        </mxCell>
        <mxCell id="TaiCyycdk1WuqpnSLntM-1" value="&lt;font style=&quot;font-size: 22px;&quot;&gt;git add&amp;nbsp;&lt;/font&gt;" style="text;html=1;align=center;verticalAlign=middle;whiteSpace=wrap;rounded=0;fontStyle=1;fontFamily=Courier New;" vertex="1" parent="1">
          <mxGeometry x="498" y="-370" width="140" height="50" as="geometry" />
        </mxCell>
        <mxCell id="TaiCyycdk1WuqpnSLntM-2" value="&lt;font style=&quot;font-size: 22px;&quot;&gt;git commit&lt;/font&gt;" style="text;html=1;align=center;verticalAlign=middle;whiteSpace=wrap;rounded=0;fontStyle=1;fontFamily=Courier New;" vertex="1" parent="1">
          <mxGeometry x="510" y="-340" width="140" height="50" as="geometry" />
        </mxCell>
        <mxCell id="TaiCyycdk1WuqpnSLntM-3" value="&lt;font style=&quot;font-size: 22px;&quot;&gt;cd my_repo&lt;/font&gt;" style="text;html=1;align=center;verticalAlign=middle;whiteSpace=wrap;rounded=0;fontStyle=1;fontFamily=Courier New;rotation=0;" vertex="1" parent="1">
          <mxGeometry x="142" y="-270" width="140" height="50" as="geometry" />
        </mxCell>
      </root>
    </mxGraphModel>
  </diagram>
</mxfile>
